HIERARCHY
ROOT Hips
{
	OFFSET 0.00000 0.00000 0.00000
	CHANNELS 6 Xposition Yposition Zposition Zrotation Yrotation Xrotation 
	JOINT LHipJoint
	{
		OFFSET 0 0 0
		CHANNELS 3 Zrotation Yrotation Xrotation
		JOINT LeftHip
		{
			OFFSET 1.85742 -1.74412 1.01653
			CHANNELS 3 Zrotation Yrotation Xrotation
			JOINT LeftKnee
			{
				OFFSET 2.54803 -7.00067 0.00000
				CHANNELS 3 Zrotation Yrotation Xrotation
				JOINT LeftAnkle
				{
					OFFSET 2.51202 -6.90173 0.00000
					CHANNELS 3 Zrotation Yrotation Xrotation
					JOINT LeftToe
					{
						OFFSET 0.17547 -0.48209 1.64281
						CHANNELS 3 Zrotation Yrotation Xrotation
						End Site
						{
							OFFSET 0.00000 -0.00000 0.86587
						}
					}
				}
			}
		}
	}
	JOINT RHipJoint
	{
		OFFSET 0 0 0
		CHANNELS 3 Zrotation Yrotation Xrotation
		JOINT RightHip
		{
			OFFSET -1.95533 -1.74413 1.01654
			CHANNELS 3 Zrotation Yrotation Xrotation
			JOINT RightKnee
			{
				OFFSET -2.49465 -6.85400 0.00000
				CHANNELS 3 Zrotation Yrotation Xrotation
				JOINT RightAnkle
				{
					OFFSET -2.54783 -7.00010 0.00000
					CHANNELS 3 Zrotation Yrotation Xrotation
					JOINT RightToe
					{
						OFFSET -0.18513 -0.50864 1.69288
						CHANNELS 3 Zrotation Yrotation Xrotation
						End Site
						{
							OFFSET -0.00000 -0.00000 0.89242
						}
					}
				}
			}
		}
	}
	JOINT lowerback
	{
		OFFSET 0 0 0
		CHANNELS 3 Zrotation Yrotation Xrotation
		JOINT Chest
		{
			OFFSET 0.02173 2.16290 -0.15998
			CHANNELS 3 Zrotation Yrotation Xrotation
			JOINT Chest2
			{
				OFFSET 0.00940 2.17323 -0.00467
				CHANNELS 3 Zrotation Yrotation Xrotation
				JOINT lowerneck
				{
					OFFSET 0 0 0
					CHANNELS 3 Zrotation Yrotation Xrotation
					JOINT Neck
					{
						OFFSET 0.01475 1.85823 0.31113
						CHANNELS 3 Zrotation Yrotation Xrotation
						JOINT Head
						{
							OFFSET 0.01902 1.88783 -0.37187
							CHANNELS 3 Zrotation Yrotation Xrotation
							End Site
							{
								OFFSET 0.00489 1.93211 -0.16169
							}
						}
					}
				}
				JOINT LeftCollar
				{
					OFFSET 0 0 0
					CHANNELS 3 Zrotation Yrotation Xrotation
					JOINT LeftShoulder
					{
						OFFSET 3.34199 1.32384 -0.07862
CHANNELS 3 Zrotation Xrotation Yrotation
						JOINT LeftElbow
						{
OFFSET 0 -5.279500 0.000000
CHANNELS 3 Zrotation Xrotation Yrotation
							JOINT LeftWrist
							{
OFFSET 0 -3.535040 0.000000
CHANNELS 3 Zrotation Xrotation Yrotation
								JOINT lhand
								{
									OFFSET 0 0 0
CHANNELS 3 Zrotation Xrotation Yrotation
									JOINT LFingers
									{
OFFSET 0 -0.667950 0.000000
CHANNELS 3 Zrotation Xrotation Yrotation
										End Site
										{
OFFSET 0 -0.538520 0.000000
										}
									}
								}
								JOINT LThumb
								{
OFFSET 0 0.000000 0.000000
CHANNELS 3 Zrotation Xrotation Yrotation
									End Site
									{
OFFSET 0 -0.546740 0.546740
									}
								}
							}
						}
					}
				}
				JOINT RightCollar
				{
					OFFSET 0 0 0
					CHANNELS 3 Zrotation Yrotation Xrotation
					JOINT RightShoulder
					{
						OFFSET -3.16149 1.45719 -0.50507
CHANNELS 3 Zrotation Xrotation Yrotation
						JOINT RightElbow
						{
OFFSET 0 -5.250350 0.000000
CHANNELS 3 Zrotation Xrotation Yrotation
							JOINT RightWrist
							{
OFFSET 0 -3.588840 0.000000
CHANNELS 3 Zrotation Xrotation Yrotation
								JOINT rhand
								{
									OFFSET 0 0 0
CHANNELS 3 Zrotation Xrotation Yrotation
									JOINT RFingers
									{
OFFSET 0 -0.779240 0.000000
CHANNELS 3 Zrotation Xrotation Yrotation
										End Site
										{
OFFSET 0 -0.628240 0.000000
										}
									}
								}
								JOINT RThumb
								{
OFFSET 0 0.000000 0.000000
CHANNELS 3 Zrotation Xrotation Yrotation
									End Site
									{
OFFSET 0 -0.637830 0.637830
									}
								}
							}
						}
					}
				}
			}
		}
	}
}
MOTION
Frames: 4
Frame Time: 0.008333333333333333
-19.894300 17.529500 -0.582300 -161.938000 83.760500 -157.675000 0.000000 0.000000 0.000000 -12.252800 -18.289000 -9.139100 1.766400 8.361700 23.818000 0.746800 5.822200 -19.459200 1.766300 -8.361300 -23.816900 0.000000 0.000000 0.000000 25.562000 11.467900 -1.619500 -0.658500 -5.190100 14.451600 0.812100 -17.584500 -15.043300 -0.933600 6.155000 -17.234700 2.822100 0.364200 1.870100 1.871400 0.636900 -1.304900 0.314400 0.299000 -2.380200 -0.356300 0.707400 -16.705100 -0.018700 1.737800 28.428400 0.366400 0.959100 12.130300 0.000000 -0.000000 0.000000 2.560900 1.964500 -41.149000 18.258500 -28.486900 4.671900 32.361900 1.191600 -48.832300 0.000000 0.000000 0.000000 -7.125000 0.000000 0.000000 -32.398200 82.427600 28.112600 0.000000 -0.000000 0.000000 -8.295000 2.768900 23.171600 -12.337100 -20.308300 -2.217900 -19.493000 -0.562300 -17.556500 0.000000 0.000000 0.000000 7.125000 0.000000 -0.000000 5.575800 11.494500 4.374200
-19.894473 17.536445 -0.674377 -158.886720 83.867551 -154.562673 0.000000 0.000000 0.000000 -12.235230 -17.725399 -9.583618 1.822662 8.486528 24.202001 0.767192 5.359048 -19.342869 1.749676 -8.323906 -23.702174 0.000000 0.000000 0.000000 25.625462 12.423095 -0.992849 -0.604083 -4.974918 13.836979 0.955800 -18.480179 -14.747562 -1.014738 6.408250 -17.973945 3.069004 0.406419 2.020169 1.810049 0.708808 -1.385880 0.109239 0.327978 -2.543653 -0.129496 0.854226 -17.096568 0.252345 1.769093 28.281984 0.434520 1.023159 12.151274 0.000000 0.000000 0.000000 2.795708 1.919974 -40.704007 18.243465 -28.467733 4.664713 32.286655 1.505959 -48.725346 0.000000 0.000000 0.000000 -7.125000 0.000000 0.000000 -31.894095 82.321369 27.604775 0.000000 0.000000 0.000000 -8.370611 3.200130 23.247376 -12.015951 -19.828498 -2.107750 -19.023471 -0.295795 -17.957745 0.000000 0.000000 0.000000 7.125000 0.000000 0.000000 5.905969 11.134521 4.679925
-19.895741 17.545769 -0.762172 -157.333339 84.121664 -152.926326 0.000000 0.000000 0.000000 -12.498947 -17.711630 -9.613725 1.837215 8.518473 24.300290 0.786848 5.469870 -19.615516 1.580225 -7.929789 -22.501551 0.000000 0.000000 0.000000 25.479329 13.462288 -0.546892 -0.593862 -4.933563 13.719144 1.042354 -19.220576 -15.258299 -0.840039 5.827505 -16.290194 3.071187 0.547065 2.269544 1.687798 0.907818 -1.517657 -0.029131 0.421177 -2.813860 0.104290 0.815575 -17.532014 0.413904 1.571195 28.262467 0.427384 0.974105 12.233833 0.000000 0.000000 0.000000 2.829886 1.809473 -40.048898 18.017217 -28.179159 4.557371 32.420314 1.967168 -48.643523 0.000000 0.000000 0.000000 -7.125000 0.000000 0.000000 -31.231983 82.327154 27.024392 0.000000 0.000000 0.000000 -8.333372 3.837727 22.865553 -11.851871 -19.582056 -2.052390 -18.846441 0.518147 -17.927279 0.000000 0.000000 0.000000 7.125000 0.000000 0.000000 6.020777 11.187802 4.765560
-19.894272 17.555608 -0.841242 -155.581247 84.444061 -151.186078 0.000000 0.000000 0.000000 -12.804143 -17.469446 -9.495346 1.836374 8.516563 24.294405 0.793347 5.629685 -19.789356 1.563443 -7.890423 -22.381832 0.000000 0.000000 0.000000 25.363392 14.211024 -0.165536 -0.605548 -4.980963 13.854235 0.880698 -19.143984 -17.857524 -0.169934 2.575964 -7.104705 2.959955 0.662577 2.520610 1.606565 1.067569 -1.593543 -0.061493 0.498426 -3.030330 0.192909 0.767432 -17.875472 0.487245 1.432590 28.213680 0.419655 0.925139 12.285442 0.000000 0.000000 0.000000 2.897285 1.903738 -39.516141 17.868356 -27.988297 4.487308 33.115208 2.420333 -48.818079 0.000000 0.000000 0.000000 -7.125000 0.000000 0.000000 -31.202835 82.765680 27.251652 0.000000 0.000000 0.000000 -8.311040 4.151959 22.490547 -11.574092 -19.162694 -1.960347 -18.908535 1.327488 -17.795241 0.000000 0.000000 0.000000 7.125000 0.000000 0.000000 5.973285 11.317171 4.711306
